# xmcd CD database file
#
# Track frame offsets:
#	183
#	25675
#	49493
#	69898
#	96903
#	126608
#	141963
#	172875
#	217453
#	252353
#	277850
#	302210
#
# Disc length: 4373 seconds
#
# Revision: 6
# Processed by: cddbd v1.5.2PL0 Copyright (c) Steve Scherf et al.
# Submitted via: CDex 1.51
#
DISCID=b811130c
DTITLE=Blue Break Beats  - Blue Break Beats Vol. 2
DYEAR=1993
DGENRE=Jazz
TTITLE0=Donald Byrd - Street Lady
TTITLE1=Bobbi Humphrey - Jasper Country Man
TTITLE2=Eddie Henderson - Kumquat Kids
TTITLE3=Gene Harris - Higga Boom
TTITLE4=Reuben Wilson - Orange Peel
TTITLE5=Jimmy McGriff - The Worm
TTITLE6=Lou Donaldson - The Caterpillar
TTITLE7=Grant Green - Ain't It Funky Now
TTITLE8=Bobby Hutcherson - Ummh
TTITLE9=Blue Mitchell - Good Humour Man
TTITLE10=Donald Byrd - Beale Street
TTITLE11=Gerald Wilson - Viva Tirado
EXTD=YEAR: 1993
EXTT0=
EXTT1=
EXTT2=
EXTT3=
EXTT4=
EXTT5=
EXTT6=
EXTT7=
EXTT8=
EXTT9=
EXTT10=
EXTT11=
PLAYORDER=
